{"title":"Goethe.[Young.Goethe.in.Love].2010.DVDRip.XviD.AC3-HORiZON-ArtSu","uid":8967688,"size":1577017559,"categoryP":"video","categoryS":"movies","magnet":"?xt=urn:btih:c19671b13e66cd89cff7c4ed6e0c8e716e0e7f87&amp;dn=Goethe.%5BYoung.Goethe.in.Love%5D.2010.DVDRip.XviD.AC3-HORiZON-ArtSu&amp;tr=udp%3A%2F%2Ftracker.openbittorrent.com%3A80&amp;tr=udp%3A%2F%2Fopen.demonii.com%3A1337&amp;tr=udp%3A%2F%2Ftracker.coppersurfer.tk%3A6969&amp;tr=udp%3A%2F%2Fexodus.desync.com%3A6969","seeders":9,"leechers":1,"uploader":"lletaif","files":3,"time":1380266072,"description":"\nTitle:\nGoethe! Aka Young Goethe in Love\n\n\nCountry:\nGermany, 2010\n\nLanguage:\nGerman\n\n\nSubtitles:\nEnglish and German\n\n\nImdb: &lt;a href=&quot;\nhttp://www.imdb.com/title/tt1440180&quot; rel=&quot;nofollow&quot; target=&quot;_NEW&quot;&gt;\nhttp://www.imdb.com/title/tt1440180&lt;/a&gt;\n\n\nMedia Info:\n\nGeneral\nComplete name                            : Goethe.[Young.Goethe.in.Love].2010.DVDRip.XviD.AC3-HORiZON-ArtSubs\nFormat                                   : AVI\nFormat/Info                              : Audio Video Interleave\nFile size                                : 1.47 GiB\nDuration                                 : 1h 40mn\nOverall bit rate                         : 2 099 Kbps\nWriting application                      : FairUse Wizard - http://fairusewizard.com\nWriting library                          : The best and REALLY easy backup tool\n\nVideo\nID                                       : 0\nFormat                                   : MPEG-4 Visual\nFormat profile                           : Advanced Simple@L5\nFormat settings, BVOP                    : 1\nFormat settings, QPel                    : No\nFormat settings, GMC                     : No warppoints\nFormat settings, Matrix                  : Default (MPEG)\nMuxing mode                              : Packed bitstream\nCodec ID                                 : XVID\nCodec ID/Hint                            : XviD\nDuration                                 : 1h 40mn\nBit rate                                 : 1 641 Kbps\nWidth                                    : 688 pixels\nHeight                                   : 288 pixels\nDisplay aspect ratio                     : 2.40:1\nFrame rate                               : 25.000 fps\nColor space                              : YUV\nChroma subsampling                       : 4:2:0\nBit depth                                : 8 bits\nScan type                                : Progressive\nCompression mode                         : Lossy\nBits/(Pixel*Frame)                       : 0.331\nStream size                              : 1.15 GiB (78%)\nWriting library                          : XviD 1.2.0.dev47 (UTC 2006-11-01)\n\nAudio\nID                                       : 1\nFormat                                   : AC-3\nFormat/Info                              : Audio Coding 3\nMode extension                           : CM (complete main)\nFormat settings, Endianness              : Big\nCodec ID                                 : 2000\nDuration                                 : 1h 40mn\nBit rate mode                            : Constant\nBit rate                                 : 448 Kbps\nChannel count                            : 6 channels\nChannel positions                        : Front: L C R, Side: L R, LFE\nSampling rate                            : 48.0 KHz\nBit depth                                : 16 bits\nCompression mode                         : Lossy\nStream size                              : 321 MiB (21%)\nAlignment                                : Split accross interleaves\nInterleave, duration                     : 40 ms (1.00 video frame)\nInterleave, preload duration             : 500 ms\n\n","torrent":{"xt":"urn:btih:c19671b13e66cd89cff7c4ed6e0c8e716e0e7f87","amp;dn":"Goethe.%5BYoung.Goethe.in.Love%5D.2010.DVDRip.XviD.AC3-HORiZON-ArtSu","amp;tr":["udp%3A%2F%2Ftracker.openbittorrent.com%3A80","udp%3A%2F%2Fopen.demonii.com%3A1337","udp%3A%2F%2Ftracker.coppersurfer.tk%3A6969","udp%3A%2F%2Fexodus.desync.com%3A6969"],"infoHash":"c19671b13e66cd89cff7c4ed6e0c8e716e0e7f87","infoHashBuffer":{"type":"Buffer","data":[193,150,113,177,62,102,205,137,207,247,196,237,110,12,142,113,110,14,127,135]},"announce":[],"urlList":[]}}